<svg xmlns="http://www.w3.org/2000/svg" viewBox="0 0 300 400"><rect x="0" y="0" width="300" height="400" fill="#FFF0F5" stroke="#32274b" stroke-width="1.3" stroke-linejoin="round"/><ellipse cx="150" cy="370" rx="85" ry="15" fill="#D7CCC8" stroke="#32274b" stroke-width="1.3" stroke-linejoin="round"/><polygon points="75,220 225,220 195,360 105,360" fill="#8D6E63" stroke="#32274b" stroke-width="1.3" stroke-linejoin="round"/><polygon points="75,220 105,220 120,360 105,360" fill="#D7CCC8" stroke="#32274b" stroke-width="1.3" stroke-linejoin="round"/><polygon points="135,220 165,220 158,360 142,360" fill="#D7CCC8" stroke="#32274b" stroke-width="1.3" stroke-linejoin="round"/><polygon points="195,220 225,220 195,360 180,360" fill="#D7CCC8" stroke="#32274b" stroke-width="1.3" stroke-linejoin="round"/><path d="M 60,220 C 55,185 85,175 105,180 C 115,165 140,165 150,175 C 160,165 185,165 195,180 C 215,175 245,185 240,220 C 220,235 80,235 60,220 Z" fill="#FF80AB" stroke="#32274b" stroke-width="1.3" stroke-linejoin="round"/><path d="M 80,180 C 75,140 115,125 135,135 C 145,120 165,120 175,135 C 195,125 225,140 220,180 C 190,170 110,170 80,180 Z" fill="#FF4081" stroke="#32274b" stroke-width="1.3" stroke-linejoin="round"/><path d="M 110,135 C 105,95 135,65 150,65 C 165,65 195,95 190,135 C 170,125 130,125 110,135 Z" fill="#F8BBD0" stroke="#32274b" stroke-width="1.3" stroke-linejoin="round"/><circle cx="150" cy="52" r="16" fill="#E63946" stroke="#32274b" stroke-width="1.3" stroke-linejoin="round"/><path d="M 153,42 C 162,25 180,20 190,26" fill="#4CAF50" stroke="#32274b" stroke-width="1.3" stroke-linejoin="round"/><rect x="100" y="190" width="12" height="6" rx="3" fill="#FFD54F" stroke="#32274b" stroke-width="1.3" stroke-linejoin="round"/><rect x="185" y="190" width="12" height="6" rx="3" fill="#00E676" stroke="#32274b" stroke-width="1.3" stroke-linejoin="round"/><rect x="125" y="140" width="6" height="12" rx="3" fill="#FFD54F" stroke="#32274b" stroke-width="1.3" stroke-linejoin="round"/><rect x="165" y="140" width="6" height="12" rx="3" fill="#00E676" stroke="#32274b" stroke-width="1.3" stroke-linejoin="round"/><circle cx="45" cy="100" r="8" fill="#FFD54F" stroke="#32274b" stroke-width="1.3" stroke-linejoin="round"/><circle cx="255" cy="100" r="8" fill="#FFD54F" stroke="#32274b" stroke-width="1.3" stroke-linejoin="round"/><circle cx="45" cy="95" r="6" fill="#FFFFFF" stroke="#32274b" stroke-width="1.3" stroke-linejoin="round"/><circle cx="255" cy="95" r="6" fill="#FFFFFF" stroke="#32274b" stroke-width="1.3" stroke-linejoin="round"/><circle cx="65" cy="360" r="4" fill="#8D6E63" stroke="#32274b" stroke-width="1.3" stroke-linejoin="round"/><circle cx="235" cy="360" r="4" fill="#8D6E63" stroke="#32274b" stroke-width="1.3" stroke-linejoin="round"/><ellipse cx="55" cy="345" rx="6" ry="4" fill="#D7CCC8" stroke="#32274b" stroke-width="1.3" stroke-linejoin="round"/></svg>