<svg xmlns="http://www.w3.org/2000/svg" viewBox="0 0 300 400"><rect x="0" y="0" width="300" height="400" fill="#E0F7FA" stroke="#32274b" stroke-width="1.3" stroke-linejoin="round"/><ellipse cx="150" cy="380" rx="130" ry="20" fill="#4CAF50" stroke="#32274b" stroke-width="1.3" stroke-linejoin="round"/><path d="M 95,290 C 40,290 20,250 15,210 C 35,240 65,260 95,280 Z" fill="#26A69A" stroke="#32274b" stroke-width="1.3" stroke-linejoin="round"/><ellipse cx="140" cy="280" rx="72" ry="52" fill="#26A69A" stroke="#32274b" stroke-width="1.3" stroke-linejoin="round"/><path d="M 85,295 C 110,328 170,328 195,295 C 165,305 115,305 85,295 Z" fill="#80CBC4" stroke="#32274b" stroke-width="1.3" stroke-linejoin="round"/><path d="M 180,260 C 190,185 220,125 235,85 L 255,90 C 240,135 215,195 205,265 Z" fill="#26A69A" stroke="#32274b" stroke-width="1.3" stroke-linejoin="round"/><ellipse cx="250" cy="80" rx="28" ry="20" fill="#26A69A" stroke="#32274b" stroke-width="1.3" stroke-linejoin="round"/><ellipse cx="268" cy="84" rx="14" ry="14" fill="#80CBC4" stroke="#32274b" stroke-width="1.3" stroke-linejoin="round"/><circle cx="245" cy="75" r="8" fill="#FFFFFF" stroke="#32274b" stroke-width="1.3" stroke-linejoin="round"/><circle cx="245" cy="75" r="4" fill="#212121" stroke="#32274b" stroke-width="1.3" stroke-linejoin="round"/><circle cx="254" cy="90" r="5" fill="#FFD54F" stroke="#32274b" stroke-width="1.3" stroke-linejoin="round"/><rect x="172" y="305" width="18" height="70" rx="8" fill="#26A69A" stroke="#32274b" stroke-width="1.3" stroke-linejoin="round"/><rect x="194" y="305" width="16" height="65" rx="8" fill="#00897B" stroke="#32274b" stroke-width="1.3" stroke-linejoin="round"/><rect x="90" y="305" width="18" height="70" rx="8" fill="#26A69A" stroke="#32274b" stroke-width="1.3" stroke-linejoin="round"/><rect x="112" y="305" width="16" height="65" rx="8" fill="#00897B" stroke="#32274b" stroke-width="1.3" stroke-linejoin="round"/><circle cx="115" cy="255" r="9" fill="#FFD54F" stroke="#32274b" stroke-width="1.3" stroke-linejoin="round"/><circle cx="145" cy="250" r="11" fill="#FFD54F" stroke="#32274b" stroke-width="1.3" stroke-linejoin="round"/><circle cx="175" cy="255" r="9" fill="#FFD54F" stroke="#32274b" stroke-width="1.3" stroke-linejoin="round"/><circle cx="200" cy="140" r="7" fill="#00897B" stroke="#32274b" stroke-width="1.3" stroke-linejoin="round"/><circle cx="185" cy="180" r="7" fill="#00897B" stroke="#32274b" stroke-width="1.3" stroke-linejoin="round"/><path d="M 30,370 C 15,335 45,325 55,360 Z" fill="#4CAF50" stroke="#32274b" stroke-width="1.3" stroke-linejoin="round"/><circle cx="255" cy="365" r="8" fill="#FFD54F" stroke="#32274b" stroke-width="1.3" stroke-linejoin="round"/><circle cx="45" cy="65" r="8" fill="#FFD54F" stroke="#32274b" stroke-width="1.3" stroke-linejoin="round"/><circle cx="255" cy="45" r="8" fill="#FFD54F" stroke="#32274b" stroke-width="1.3" stroke-linejoin="round"/></svg>