<svg xmlns="http://www.w3.org/2000/svg" viewBox="0 0 300 400"><rect x="0" y="0" width="300" height="400" fill="#1A1A2E" stroke="#32274b" stroke-width="1.3" stroke-linejoin="round"/><circle cx="240" cy="70" r="30" fill="#FFD54F" stroke="#32274b" stroke-width="1.3" stroke-linejoin="round"/><path d="M 80,180 C 80,90 220,90 220,180 C 220,270 240,310 215,310 C 190,310 180,290 165,305 C 150,320 135,305 120,310 C 95,315 80,270 80,180 Z" fill="#FFFFFF" stroke="#32274b" stroke-width="1.3" stroke-linejoin="round"/><ellipse cx="70" cy="200" rx="22" ry="14" fill="#FFFFFF" stroke="#32274b" stroke-width="1.3" stroke-linejoin="round"/><ellipse cx="230" cy="200" rx="22" ry="14" fill="#FFFFFF" stroke="#32274b" stroke-width="1.3" stroke-linejoin="round"/><ellipse cx="125" cy="160" rx="12" ry="18" fill="#212121" stroke="#32274b" stroke-width="1.3" stroke-linejoin="round"/><ellipse cx="175" cy="160" rx="12" ry="18" fill="#212121" stroke="#32274b" stroke-width="1.3" stroke-linejoin="round"/><circle cx="122" cy="155" r="5" fill="#FFFFFF" stroke="#32274b" stroke-width="1.3" stroke-linejoin="round"/><circle cx="172" cy="155" r="5" fill="#FFFFFF" stroke="#32274b" stroke-width="1.3" stroke-linejoin="round"/><ellipse cx="150" cy="195" rx="10" ry="15" fill="#212121" stroke="#32274b" stroke-width="1.3" stroke-linejoin="round"/><circle cx="105" cy="185" r="10" fill="#E91E63" stroke="#32274b" stroke-width="1.3" stroke-linejoin="round"/><circle cx="195" cy="185" r="10" fill="#E91E63" stroke="#32274b" stroke-width="1.3" stroke-linejoin="round"/><ellipse cx="75" cy="335" rx="30" ry="24" fill="#FF9800" stroke="#32274b" stroke-width="1.3" stroke-linejoin="round"/><ellipse cx="75" cy="335" rx="16" ry="24" fill="#FFD54F" stroke="#32274b" stroke-width="1.3" stroke-linejoin="round"/><rect x="72" y="304" width="6" height="12" fill="#1A1A2E" stroke="#32274b" stroke-width="1.3" stroke-linejoin="round"/><circle cx="45" cy="55" r="4" fill="#FFD54F" stroke="#32274b" stroke-width="1.3" stroke-linejoin="round"/><circle cx="110" cy="45" r="5" fill="#FFD54F" stroke="#32274b" stroke-width="1.3" stroke-linejoin="round"/><circle cx="180" cy="50" r="4" fill="#FFD54F" stroke="#32274b" stroke-width="1.3" stroke-linejoin="round"/><circle cx="50" cy="130" r="4" fill="#FFD54F" stroke="#32274b" stroke-width="1.3" stroke-linejoin="round"/><circle cx="235" cy="340" r="16" fill="#FFD54F" stroke="#32274b" stroke-width="1.3" stroke-linejoin="round"/><circle cx="235" cy="335" r="12" fill="#FF9800" stroke="#32274b" stroke-width="1.3" stroke-linejoin="round"/><circle cx="235" cy="328" r="6" fill="#FFFFFF" stroke="#32274b" stroke-width="1.3" stroke-linejoin="round"/><circle cx="60" cy="95" r="8" fill="#212121" stroke="#32274b" stroke-width="1.3" stroke-linejoin="round"/><circle cx="240" cy="140" r="8" fill="#212121" stroke="#32274b" stroke-width="1.3" stroke-linejoin="round"/></svg>