<svg xmlns="http://www.w3.org/2000/svg" viewBox="0 0 300 400"><rect x="0" y="0" width="300" height="400" fill="#FFF8E1" stroke="#32274b" stroke-width="1.3" stroke-linejoin="round"/><circle cx="150" cy="200" r="100" fill="#FFD54F" stroke="#32274b" stroke-width="1.3" stroke-linejoin="round"/><ellipse cx="150" cy="260" rx="85" ry="30" fill="#FFA000" stroke="#32274b" stroke-width="1.3" stroke-linejoin="round"/><ellipse cx="110" cy="170" rx="12" ry="18" fill="#212121" stroke="#32274b" stroke-width="1.3" stroke-linejoin="round"/><ellipse cx="190" cy="170" rx="12" ry="18" fill="#212121" stroke="#32274b" stroke-width="1.3" stroke-linejoin="round"/><circle cx="106" cy="164" r="5" fill="#FFFFFF" stroke="#32274b" stroke-width="1.3" stroke-linejoin="round"/><circle cx="186" cy="164" r="5" fill="#FFFFFF" stroke="#32274b" stroke-width="1.3" stroke-linejoin="round"/><path d="M 95,210 Q 150,275 205,210 Q 150,240 95,210 Z" fill="#212121" stroke="#32274b" stroke-width="1.3" stroke-linejoin="round"/><ellipse cx="150" cy="245" rx="24" ry="14" fill="#FF4081" stroke="#32274b" stroke-width="1.3" stroke-linejoin="round"/><circle cx="85" cy="205" r="18" fill="#FF4081" stroke="#32274b" stroke-width="1.3" stroke-linejoin="round"/><circle cx="215" cy="205" r="18" fill="#FF4081" stroke="#32274b" stroke-width="1.3" stroke-linejoin="round"/><circle cx="45" cy="65" r="8" fill="#FFA000" stroke="#32274b" stroke-width="1.3" stroke-linejoin="round"/><circle cx="255" cy="65" r="8" fill="#FFA000" stroke="#32274b" stroke-width="1.3" stroke-linejoin="round"/><circle cx="40" cy="335" r="10" fill="#FFA000" stroke="#32274b" stroke-width="1.3" stroke-linejoin="round"/><circle cx="260" cy="335" r="10" fill="#FFA000" stroke="#32274b" stroke-width="1.3" stroke-linejoin="round"/><circle cx="80" cy="85" r="6" fill="#FF4081" stroke="#32274b" stroke-width="1.3" stroke-linejoin="round"/><circle cx="220" cy="85" r="6" fill="#FFD54F" stroke="#32274b" stroke-width="1.3" stroke-linejoin="round"/><circle cx="65" cy="280" r="7" fill="#FF4081" stroke="#32274b" stroke-width="1.3" stroke-linejoin="round"/><circle cx="235" cy="280" r="7" fill="#FFD54F" stroke="#32274b" stroke-width="1.3" stroke-linejoin="round"/><circle cx="150" cy="50" r="14" fill="#FFD54F" stroke="#32274b" stroke-width="1.3" stroke-linejoin="round"/><circle cx="150" cy="355" r="14" fill="#FFD54F" stroke="#32274b" stroke-width="1.3" stroke-linejoin="round"/><circle cx="115" cy="48" r="4" fill="#FFFFFF" stroke="#32274b" stroke-width="1.3" stroke-linejoin="round"/><circle cx="185" cy="48" r="4" fill="#FFFFFF" stroke="#32274b" stroke-width="1.3" stroke-linejoin="round"/><circle cx="150" cy="380" r="5" fill="#FFFFFF" stroke="#32274b" stroke-width="1.3" stroke-linejoin="round"/></svg>